# xmcd CD database file
#
# Track frame offsets:
#	187
#	12387
#	26295
#	38672
#	52010
#	63442
#	74972
#	86555
#	101442
#	114300
#	125340
#	138112
#	150532
#	161077
#	172927
#	184932
#
# Disc length: 2604 seconds
#
# Revision: 0
# Processed by: cddbd v1.5.2PL0 Copyright (c) Steve Scherf et al.
# Submitted via: CDex 1.51
#
DISCID=d00a2a10
DTITLE=George Shearing Quintet - Lullaby Of Birdland
DYEAR=1953
DGENRE=Jazz
TTITLE0=Lullaby of Birdland
TTITLE1=I'll Never Smile Again
TTITLE2=I Remember You
TTITLE3=My Silent Love
TTITLE4=They All Laughed
TTITLE5=Loose Leaf
TTITLE6=Minoration
TTITLE7=Midnight Mood
TTITLE8=Simplicity
TTITLE9=Over the Rainbow
TTITLE10=How High the Moon
TTITLE11=When Lights Are Low
TTITLE12=Basic English
TTITLE13=I Hear a Rhapsody
TTITLE14=Undecided
TTITLE15=Lullaby of Birdland
EXTD=YEAR: 1953
EXTT0=
EXTT1=
EXTT2=
EXTT3=
EXTT4=
EXTT5=
EXTT6=
EXTT7=
EXTT8=
EXTT9=
EXTT10=
EXTT11=
EXTT12=
EXTT13=
EXTT14=
EXTT15=
PLAYORDER=
